<?xml version="1.0" encoding="iso-8859-1"?>
<!-- Generator: Adobe Illustrator 19.0.0, SVG Export Plug-In . SVG Version: 6.00 Build 0)  -->
<svg version="1.1" id="Capa_1" xmlns="http://www.w3.org/2000/svg" xmlns:xlink="http://www.w3.org/1999/xlink" x="0px" y="0px"
	 viewBox="0 0 512 512" style="enable-background:new 0 0 512 512;" xml:space="preserve">
<g>
	<g>
		<path d="M437,0c-41.355,0-75,33.645-75,75c0,36.219,25.808,66.522,60,73.491V226c0,8.271-6.729,15-15,15H271v-92.509
			c34.192-6.968,60-37.271,60-73.491c0-41.355-33.645-75-75-75c-41.355,0-75,33.645-75,75c0,36.219,25.808,66.522,60,73.491V241H90
			v-92.509c34.192-6.968,60-37.271,60-73.491c0-41.355-33.645-75-75-75S0,33.645,0,75c0,36.219,25.808,66.522,60,73.491V363.51
			C25.808,370.478,0,400.781,0,437c0,41.355,33.645,75,75,75s75-33.645,75-75c0-36.219-25.808-66.522-60-73.491V271h151v92.509
			c-34.192,6.968-60,37.271-60,73.491c0,41.355,33.645,75,75,75c41.355,0,75-33.645,75-75c0-36.219-25.808-66.522-60-73.491V271h136
			c24.813,0,45-20.187,45-45v-77.509c34.192-6.968,60-37.271,60-73.491C512,33.645,478.355,0,437,0z M120,437
			c0,24.813-20.187,45-45,45s-45-20.187-45-45s20.187-45,45-45S120,412.187,120,437z M75,120c-24.813,0-45-20.187-45-45
			s20.187-45,45-45s45,20.187,45,45S99.813,120,75,120z M301,437c0,24.813-20.187,45-45,45s-45-20.187-45-45s20.187-45,45-45
			S301,412.187,301,437z M256,120c-24.813,0-45-20.187-45-45s20.187-45,45-45s45,20.187,45,45S280.813,120,256,120z M437,120
			c-24.813,0-45-20.187-45-45s20.187-45,45-45s45,20.187,45,45S461.813,120,437,120z"/>
	</g>
</g>
<g>
</g>
<g>
</g>
<g>
</g>
<g>
</g>
<g>
</g>
<g>
</g>
<g>
</g>
<g>
</g>
<g>
</g>
<g>
</g>
<g>
</g>
<g>
</g>
<g>
</g>
<g>
</g>
<g>
</g>
</svg>
