<svg id="Icon_awesome-instagram" data-name="Icon awesome-instagram" xmlns="http://www.w3.org/2000/svg" width="66.244" height="62.271" viewBox="0 0 66.244 62.271">
  <path id="Icon_awesome-instagram-2" data-name="Icon awesome-instagram" d="M33.124,17.408c-9.4,0-16.98,7.128-16.98,15.966s7.581,15.966,16.98,15.966S50.1,42.211,50.1,33.373,42.523,17.408,33.124,17.408Zm0,26.345c-6.074,0-11.039-4.655-11.039-10.38s4.951-10.38,11.039-10.38,11.039,4.655,11.039,10.38S39.2,43.753,33.124,43.753Zm21.635-27a3.968,3.968,0,0,1-7.921,0,3.968,3.968,0,0,1,7.921,0Zm11.246,3.779c-.251-4.988-1.463-9.407-5.35-13.048s-8.571-4.78-13.877-5.03c-5.468-.292-21.857-.292-27.325,0-5.291.236-9.99,1.376-13.877,5.016S.493,15.532.227,20.52c-.31,5.141-.31,20.551,0,25.692C.479,51.2,1.691,55.62,5.577,59.26s8.571,4.78,13.877,5.03c5.468.292,21.857.292,27.325,0,5.305-.236,10-1.376,13.877-5.03s5.084-8.059,5.35-13.048c.31-5.141.31-20.537,0-25.678ZM58.942,51.729a10.865,10.865,0,0,1-6.3,5.919c-4.36,1.626-14.7,1.251-19.522,1.251S17.947,59.26,13.6,57.648a10.865,10.865,0,0,1-6.3-5.919c-1.729-4.1-1.33-13.826-1.33-18.356S5.592,19.1,7.306,15.018A10.865,10.865,0,0,1,13.6,9.1c4.36-1.626,14.7-1.251,19.522-1.251S48.3,7.487,52.646,9.1a10.865,10.865,0,0,1,6.3,5.919c1.729,4.1,1.33,13.826,1.33,18.356S60.671,47.644,58.942,51.729Z" transform="translate(0.005 -2.238)" fill="#fff"/>
</svg>
