<svg id="Icon_awesome-linkedin" data-name="Icon awesome-linkedin" xmlns="http://www.w3.org/2000/svg" width="61.731" height="61.731" viewBox="0 0 61.731 61.731">
  <path id="Icon_awesome-linkedin-2" data-name="Icon awesome-linkedin" d="M57.322,2.25H4.4A4.428,4.428,0,0,0,0,6.7V59.53a4.428,4.428,0,0,0,4.4,4.451H57.322a4.44,4.44,0,0,0,4.409-4.451V6.7A4.44,4.44,0,0,0,57.322,2.25ZM18.657,55.162H9.508V25.7h9.163v29.46ZM14.082,21.679a5.305,5.305,0,1,1,5.305-5.305A5.307,5.307,0,0,1,14.082,21.679ZM52.954,55.162H43.8V40.832c0-3.417-.069-7.813-4.754-7.813-4.768,0-5.5,3.72-5.5,7.565V55.162H24.4V25.7H33.18v4.024H33.3a9.637,9.637,0,0,1,8.667-4.754c9.26,0,10.982,6.1,10.982,14.041Z" transform="translate(0 -2.25)" fill="#fff"/>
</svg>
