<svg xmlns="http://www.w3.org/2000/svg" width="94.281" height="105.313" viewBox="0 0 94.281 105.313">
  <path id="play-store" d="M100.926,45.149l-77-44.013A8.629,8.629,0,0,0,19.646,0c-.03,0-.06,0-.089,0-.2,0-.4.012-.594.028-.089.007-.178.017-.267.027q-.232.026-.462.064c-.056.01-.112.013-.167.023l0,0A8.631,8.631,0,0,0,11,8.644V96.669a8.633,8.633,0,0,0,7.07,8.5l0,0c.05.01.1.013.15.021q.247.042.5.069c.083.009.166.018.249.025.2.016.39.025.585.027.033,0,.066,0,.1,0a8.629,8.629,0,0,0,4.283-1.136l77-44.013a8.642,8.642,0,0,0,4.353-7.5v-.008A8.643,8.643,0,0,0,100.926,45.149Zm-30.449-8.74L62.821,46.452,43.343,20.9ZM97.193,53.633,43.343,84.414,77.06,40.18,97.192,51.688a1.119,1.119,0,0,1,0,1.945Z" transform="translate(-10.998)" fill="#fff"/>
</svg>
