<svg id="Icon_awesome-twitter-square" data-name="Icon awesome-twitter-square" xmlns="http://www.w3.org/2000/svg" width="62.27" height="62.271" viewBox="0 0 62.27 62.271">
  <path id="Icon_awesome-twitter-square-2" data-name="Icon awesome-twitter-square" d="M55.6,2.25H6.672A6.674,6.674,0,0,0,0,8.922V57.849a6.674,6.674,0,0,0,6.672,6.672H55.6a6.674,6.674,0,0,0,6.672-6.672V8.922A6.674,6.674,0,0,0,55.6,2.25ZM48.8,24.323c.028.389.028.792.028,1.181,0,12.051-9.174,25.937-25.937,25.937a25.817,25.817,0,0,1-14-4.087,19.2,19.2,0,0,0,2.2.111,18.277,18.277,0,0,0,11.314-3.892,9.128,9.128,0,0,1-8.52-6.324A9.825,9.825,0,0,0,18,37.083a9.117,9.117,0,0,1-7.3-8.951V28.02a9.11,9.11,0,0,0,4.114,1.154,9.1,9.1,0,0,1-4.059-7.589A9,9,0,0,1,12,16.984a25.884,25.884,0,0,0,18.792,9.535,9.135,9.135,0,0,1,15.554-8.326A17.863,17.863,0,0,0,52.123,16a9.092,9.092,0,0,1-4,5.018A18.141,18.141,0,0,0,53.374,19.6,19.188,19.188,0,0,1,48.8,24.323Z" transform="translate(0 -2.25)" fill="#fff"/>
</svg>
